<svg width="1400" height="1400" viewBox="0 0 1400 1400" fill="none" shape-rendering="crispEdges" xmlns="http://www.w3.org/2000/svg">
<rect x="100" y="300" width="400" height="500" fill="white"/>
<rect x="700" y="300" width="400" height="500" fill="white"/>
<rect y="600" width="100" height="800" fill="#FFB852"/>
<rect x="1300" y="600" width="100" height="800" fill="#FFB852"/>
<rect x="600" width="100" height="1200" fill="#FFB852"/>
<rect x="1100" y="200" width="100" height="1000" fill="#FFB852"/>
<rect x="1200" y="300" width="100" height="1000" fill="#FFB852"/>
<rect x="100" y="700" width="100" height="600" fill="#FFB852"/>
<rect x="400" y="700" width="100" height="700" fill="#FFB852"/>
<rect x="500" width="100" height="1400" fill="#FFB852"/>
<rect x="200" y="800" width="100" height="400" fill="#FFB852"/>
<rect x="400" y="100" width="100" height="300" fill="#FFB852"/>
<rect x="300" y="100" width="100" height="200" fill="#FFB852"/>
<rect x="200" y="200" width="100" height="100" fill="#FFB852"/>
<rect x="100" y="300" width="100" height="100" fill="#FFB852"/>
<rect x="800" width="100" height="300" fill="#FFB852"/>
<rect x="900" y="100" width="100" height="200" fill="#FFB852"/>
<rect x="1000" y="100" width="100" height="300" fill="#FFB852"/>
<rect x="700" width="100" height="400" fill="#FFB852"/>
<rect x="300" y="800" width="100" height="500" fill="#FFB852"/>
<rect x="800" y="800" width="100" height="600" fill="#FFB852"/>
<rect x="900" y="800" width="100" height="600" fill="#FFB852"/>
<rect x="1000" y="700" width="100" height="600" fill="#FFB852"/>
<rect x="700" y="700" width="100" height="500" fill="#FFB852"/>
<rect x="100" y="500" width="200" height="200" fill="#3949AB"/>
<rect x="700" y="500" width="200" height="200" fill="#3949AB"/>
</svg>
