<svg width="1400" height="1400" viewBox="0 0 1400 1400" fill="none" shape-rendering="crispEdges" xmlns="http://www.w3.org/2000/svg">
<rect y="600" width="100" height="800" fill="#3949AB"/>
<rect x="1300" y="600" width="100" height="800" fill="#3949AB"/>
<rect x="600" width="100" height="1200" fill="#3949AB"/>
<rect x="1100" y="200" width="100" height="1000" fill="#3949AB"/>
<rect x="1200" y="300" width="100" height="1000" fill="#3949AB"/>
<rect x="100" y="300" width="100" height="1000" fill="#3949AB"/>
<rect x="400" y="100" width="100" height="1300" fill="#3949AB"/>
<rect x="500" width="100" height="1400" fill="#3949AB"/>
<rect x="200" y="200" width="100" height="1000" fill="#3949AB"/>
<rect x="300" y="100" width="100" height="1200" fill="#3949AB"/>
<rect x="800" width="100" height="1400" fill="#3949AB"/>
<rect x="900" y="100" width="100" height="1300" fill="#3949AB"/>
<rect x="1000" y="100" width="100" height="1200" fill="#3949AB"/>
<rect x="700" width="100" height="1200" fill="#3949AB"/>
<rect x="400" y="500" width="200" height="200" fill="white"/>
<rect x="200" y="900" width="200" height="100" fill="white"/>
<rect x="100" y="1000" width="100" height="100" fill="white"/>
<rect x="1200" y="1000" width="100" height="100" fill="white"/>
<rect x="400" y="1000" width="200" height="100" fill="white"/>
<rect x="800" y="1000" width="200" height="100" fill="white"/>
<rect x="600" y="900" width="200" height="100" fill="white"/>
<rect x="1000" y="900" width="200" height="100" fill="white"/>
<rect x="800" y="500" width="200" height="200" fill="white"/>
</svg>
